<svg width="280" height="105" viewBox="0 0 280 105" fill="none" xmlns="http://www.w3.org/2000/svg">
<path d="M2.4 49V0.999999H16.86L20.82 19.18L21.6 41.08H23.16L23.88 19.18L27.9 0.999999H42.3V49H33.3V34.24L35.04 8.92H33.42L30.9 34.84L27.18 49H17.52L13.86 34.84L11.28 8.92H9.72L11.4 34.24V49H2.4ZM59.587 49.6C55.187 49.6 51.997 48.67 50.017 46.81C48.057 44.95 47.027 41.86 46.927 37.54C46.887 35.58 46.857 33.54 46.837 31.42C46.817 29.3 46.807 27.15 46.807 24.97C46.807 22.79 46.817 20.64 46.837 18.52C46.857 16.4 46.887 14.36 46.927 12.4C47.027 8.1 48.057 5.03 50.017 3.19C51.997 1.33 55.187 0.399996 59.587 0.399996C64.007 0.399996 67.177 1.33 69.097 3.19C71.017 5.03 72.047 8.1 72.187 12.4C72.267 14.4 72.327 16.46 72.367 18.58C72.407 20.7 72.427 22.85 72.427 25.03C72.427 27.19 72.407 29.33 72.367 31.45C72.327 33.55 72.267 35.58 72.187 37.54C72.047 41.86 71.017 44.95 69.097 46.81C67.177 48.67 64.007 49.6 59.587 49.6ZM59.587 42.28C60.767 42.28 61.657 42.02 62.257 41.5C62.857 40.96 63.167 40.2 63.187 39.22C63.287 37.18 63.357 34.94 63.397 32.5C63.437 30.06 63.457 27.55 63.457 24.97C63.457 22.39 63.437 19.88 63.397 17.44C63.357 15 63.287 12.76 63.187 10.72C63.167 9.76 62.847 9.02 62.227 8.5C61.607 7.98 60.727 7.72 59.587 7.72C58.447 7.72 57.557 7.98 56.917 8.5C56.297 9.02 55.967 9.76 55.927 10.72C55.847 12.76 55.777 15 55.717 17.44C55.677 19.88 55.657 22.39 55.657 24.97C55.657 27.55 55.677 30.06 55.717 32.5C55.777 34.94 55.847 37.18 55.927 39.22C55.967 40.2 56.297 40.96 56.917 41.5C57.557 42.02 58.447 42.28 59.587 42.28ZM76.8727 49V0.999999H89.0527C93.5527 0.999999 96.8027 1.96 98.8027 3.88C100.823 5.78 101.873 8.92 101.953 13.3C102.013 16.08 102.053 18.72 102.073 21.22C102.093 23.72 102.093 26.22 102.073 28.72C102.053 31.22 102.013 33.86 101.953 36.64C101.873 41.04 100.823 44.2 98.8027 46.12C96.8027 48.04 93.5527 49 89.0527 49H76.8727ZM85.8727 41.08H89.0527C90.3127 41.08 91.2727 40.79 91.9327 40.21C92.5927 39.63 92.9327 38.8 92.9527 37.72C93.0127 35.58 93.0527 33.45 93.0727 31.33C93.1127 29.21 93.1327 27.09 93.1327 24.97C93.1327 22.85 93.1127 20.73 93.0727 18.61C93.0527 16.47 93.0127 14.34 92.9527 12.22C92.9327 11.16 92.5927 10.35 91.9327 9.79C91.2727 9.21 90.3127 8.92 89.0527 8.92H85.8727V41.08ZM106.58 49V0.999999H127.34V8.92H115.58V20.62H126.74V28.54H115.58V41.08H127.34V49H106.58ZM131.072 49V0.999999H142.652C147.132 0.999999 150.362 1.91 152.342 3.73C154.342 5.53 155.412 8.52 155.552 12.7C155.592 13.82 155.612 14.8 155.612 15.64C155.632 16.48 155.632 17.32 155.612 18.16C155.612 19 155.592 19.98 155.552 21.1C155.472 23.7 155.032 25.83 154.232 27.49C153.452 29.15 152.232 30.42 150.572 31.3L156.212 49H146.672L142.112 32.8H140.072V49H131.072ZM140.072 24.88H142.652C143.912 24.88 144.862 24.59 145.502 24.01C146.142 23.43 146.492 22.62 146.552 21.58C146.612 20.6 146.652 19.58 146.672 18.52C146.692 17.44 146.692 16.37 146.672 15.31C146.652 14.23 146.612 13.2 146.552 12.22C146.492 11.16 146.142 10.35 145.502 9.79C144.862 9.21 143.912 8.92 142.652 8.92H140.072V24.88ZM159.666 49V0.999999H172.686L176.286 16.3L179.586 41.08H181.146L179.466 21.58L178.746 0.999999H187.446V49H173.766L170.166 33.28L167.706 8.86H166.026L167.586 30.58L168.366 49H159.666ZM0.6 104L7.26 56H21.42L28.08 104H18.84L17.82 93.98H10.86L9.84 104H0.6ZM11.7 86.06H16.98L15.9 75.44L15.18 63.92H13.5L12.78 75.44L11.7 86.06ZM31.0523 104V56H42.6323C47.1123 56 50.3423 56.91 52.3223 58.73C54.3223 60.53 55.3923 63.52 55.5323 67.7C55.5723 68.82 55.5923 69.8 55.5923 70.64C55.6123 71.48 55.6123 72.32 55.5923 73.16C55.5923 74 55.5723 74.98 55.5323 76.1C55.4523 78.7 55.0123 80.83 54.2123 82.49C53.4323 84.15 52.2123 85.42 50.5523 86.3L56.1923 104H46.6523L42.0923 87.8H40.0523V104H31.0523ZM40.0523 79.88H42.6323C43.8923 79.88 44.8423 79.59 45.4823 79.01C46.1223 78.43 46.4723 77.62 46.5323 76.58C46.5923 75.6 46.6323 74.58 46.6523 73.52C46.6723 72.44 46.6723 71.37 46.6523 70.31C46.6323 69.23 46.5923 68.2 46.5323 67.22C46.4723 66.16 46.1223 65.35 45.4823 64.79C44.8423 64.21 43.8923 63.92 42.6323 63.92H40.0523V79.88ZM65.3161 104V63.92H57.6061V56H82.0261V63.92H74.3161V104H65.3161ZM109.92 104.6C106.9 104.6 104.48 104.2 102.66 103.4C100.84 102.58 99.5105 101.29 98.6705 99.53C97.8305 97.75 97.3605 95.42 97.2605 92.54C97.2005 90.86 97.1505 88.95 97.1105 86.81C97.0905 84.65 97.0805 82.43 97.0805 80.15C97.0805 77.87 97.0905 75.67 97.1105 73.55C97.1505 71.43 97.2005 69.56 97.2605 67.94C97.3805 64.9 97.8705 62.46 98.7305 60.62C99.6105 58.78 100.95 57.45 102.75 56.63C104.57 55.81 106.96 55.4 109.92 55.4C114.12 55.4 117.18 56.33 119.1 58.19C121.04 60.03 122.14 63.1 122.4 67.4C122.46 68.32 122.49 69.42 122.49 70.7C122.49 71.96 122.46 73.06 122.4 74H113.4C113.46 72.88 113.49 71.5 113.49 69.86C113.49 68.2 113.46 66.82 113.4 65.72C113.34 64.76 113.01 64.02 112.41 63.5C111.81 62.98 110.98 62.72 109.92 62.72C108.76 62.72 107.87 62.98 107.25 63.5C106.65 64.02 106.32 64.76 106.26 65.72C106.14 67.82 106.05 70.09 105.99 72.53C105.93 74.95 105.9 77.43 105.9 79.97C105.9 82.51 105.93 85 105.99 87.44C106.05 89.86 106.14 92.12 106.26 94.22C106.32 95.2 106.65 95.96 107.25 96.5C107.87 97.02 108.76 97.28 109.92 97.28C111.06 97.28 111.97 97.02 112.65 96.5C113.35 95.96 113.74 95.2 113.82 94.22C113.86 93.76 113.88 93.16 113.88 92.42C113.9 91.66 113.9 90.91 113.88 90.17C113.88 89.41 113.86 88.8 113.82 88.34H110.52V80.54H122.58C122.68 82.36 122.72 84.36 122.7 86.54C122.68 88.7 122.62 90.7 122.52 92.54C122.32 96.86 121.24 99.95 119.28 101.81C117.34 103.67 114.22 104.6 109.92 104.6ZM124.877 104L131.537 56H145.697L152.357 104H143.117L142.097 93.98H135.137L134.117 104H124.877ZM135.977 86.06H141.257L140.177 75.44L139.457 63.92H137.777L137.057 75.44L135.977 86.06ZM155.33 104V56H164.33V96.08H176.15V104H155.33ZM179.47 104V56H188.47V96.08H200.29V104H179.47ZM203.611 104V56H224.371V63.92H212.611V75.62H223.771V83.54H212.611V96.08H224.371V104H203.611ZM228.103 104V56H239.683C244.163 56 247.393 56.91 249.373 58.73C251.373 60.53 252.443 63.52 252.583 67.7C252.623 68.82 252.643 69.8 252.643 70.64C252.663 71.48 252.663 72.32 252.643 73.16C252.643 74 252.623 74.98 252.583 76.1C252.503 78.7 252.063 80.83 251.263 82.49C250.483 84.15 249.263 85.42 247.603 86.3L253.243 104H243.703L239.143 87.8H237.103V104H228.103ZM237.103 79.88H239.683C240.943 79.88 241.893 79.59 242.533 79.01C243.173 78.43 243.523 77.62 243.583 76.58C243.643 75.6 243.683 74.58 243.703 73.52C243.723 72.44 243.723 71.37 243.703 70.31C243.683 69.23 243.643 68.2 243.583 67.22C243.523 66.16 243.173 65.35 242.533 64.79C241.893 64.21 240.943 63.92 239.683 63.92H237.103V79.88ZM261.345 104V92.6V92.54L252.345 56H261.525L264.105 67.64L265.005 81.74H266.685L267.585 67.64L270.165 56H279.345L270.345 92.54V92.6V104H261.345Z" fill="#151515"/>
</svg>
